<svg width="8253" height="3870" viewBox="0 0 8253 3870" fill="none" xmlns="http://www.w3.org/2000/svg">
<path d="M601.078 6.07844C601.078 9.4554 466.004 878.686 300.539 1937.7C135.074 2996.72 0 3864.6 0 3866.62C0 3868.65 168.842 3870 374.829 3870H749.659L753.036 3854.47C754.386 3846.36 801.662 3428.97 857.718 2927.83C913.773 2426.01 960.374 2013.35 961.049 2009.97C962.4 2006.59 1047.5 2417.23 1150.83 2921.75C1254.16 3426.94 1339.93 3846.36 1341.96 3855.14C1345.33 3870 1346.01 3870 1478.38 3870H1611.43L1816.74 2936.61C1987.61 2161.26 2023.4 2008.62 2026.78 2033.61C2028.81 2049.82 2071.35 2469.91 2121.33 2966.32L2211.83 3870H2599.49H2987.15L2983.1 3844.34C2981.08 3830.83 2854.11 2967 2701.47 1924.87C2548.84 882.738 2422.55 23.6386 2421.19 14.8585L2417.82 -9.83477e-05H2101.07H1784.32L1780.95 14.8585C1778.92 23.6386 1714.08 497.764 1637.09 1069.15C1559.43 1640.53 1493.91 2102.5 1491.21 2095.74C1487.16 2084.94 1248.76 29.7172 1249.43 8.10461C1249.43 2.02608 1179.87 -9.83477e-05 925.254 -9.83477e-05C737.502 -9.83477e-05 601.078 2.70147 601.078 6.07844Z" fill="#F3C56F"/>
<path d="M3255.28 1935V3870H3923.89H4592.5L4591.15 3615.38L4589.13 3360.08L4314.25 3358.05L4038.7 3356.7V2799.5V2242.3H4315.6H4592.5L4591.15 1987.01L4589.13 1732.38L4314.25 1730.36L4038.7 1729.01V1121.15V513.298L4314.25 511.948L4589.13 509.921L4591.15 254.623L4592.5 -9.83477e-05H3923.89H3255.28V1935Z" fill="#F3C56F"/>
<path d="M4882.91 1935V3870H5551.53H6220.14V3613.35V3356.7H5943.24H5666.34V2799.5V2242.3H5943.24H6220.14V1985.65V1729.01H5943.24H5666.34V1121.15V513.298H5943.24H6220.14V256.649V-9.83477e-05H5551.53H4882.91V1935Z" fill="#F3C56F"/>
<path d="M6361.97 256.649V513.298H6638.87H6915.77V2191.65V3870H7307.48H7699.2V2191.65V513.298H7976.1H8253V256.649V-9.83477e-05H7307.48H6361.97V256.649Z" fill="#F3C56F"/>
</svg>
